<svg width="40" height="40" viewBox="0 0 40 40" fill="none" xmlns="http://www.w3.org/2000/svg">
<path d="M29.2636 34.676C27.4672 36.4174 25.5058 36.1425 23.6177 35.3176C21.6196 34.4744 19.7865 34.4377 17.6784 35.3176C15.0388 36.4541 13.6456 36.1242 12.0691 34.676C3.12359 25.4555 4.44342 11.4139 14.5988 10.9007C17.0735 11.029 18.7966 12.2572 20.2448 12.3672C22.4078 11.9272 24.4792 10.6624 26.7889 10.8273C29.5569 11.0473 31.6467 12.1472 33.0215 14.1269C27.3022 17.5548 28.6587 25.0889 33.9014 27.1969C32.8565 29.9466 31.5 32.6779 29.2453 34.6943L29.2636 34.676ZM20.0615 10.7907C19.7865 6.70287 23.1044 3.32996 26.9173 3C27.4489 7.7294 22.6278 11.249 20.0615 10.7907Z" fill="black"/>
</svg>
